<mxfile host="app.diagrams.net" agent="Mozilla/5.0 (Windows NT 10.0; Win64; x64) AppleWebKit/537.36 (KHTML, like Gecko) Chrome/138.0.0.0 Safari/537.36" version="27.1.3">
  <diagram name="Page-1" id="HBU4FtZz5c3PJqoIXEbg">
    <mxGraphModel dx="3126" dy="777" grid="1" gridSize="10" guides="1" tooltips="1" connect="1" arrows="1" fold="1" page="1" pageScale="1" pageWidth="850" pageHeight="1100" math="0" shadow="0">
      <root>
        <mxCell id="0" />
        <mxCell id="1" parent="0" />
        <mxCell id="LnICMcrU3YOlmoYzz83u-3" style="edgeStyle=orthogonalEdgeStyle;rounded=0;orthogonalLoop=1;jettySize=auto;html=1;exitX=1;exitY=0.5;exitDx=0;exitDy=0;exitPerimeter=0;" edge="1" parent="1" source="LnICMcrU3YOlmoYzz83u-1">
          <mxGeometry relative="1" as="geometry">
            <mxPoint x="-1480" y="225" as="targetPoint" />
          </mxGeometry>
        </mxCell>
        <mxCell id="LnICMcrU3YOlmoYzz83u-1" value="TNC Case&amp;nbsp;" style="strokeWidth=2;html=1;shape=mxgraph.flowchart.start_2;whiteSpace=wrap;" vertex="1" parent="1">
          <mxGeometry x="-1630" y="190" width="60" height="70" as="geometry" />
        </mxCell>
        <mxCell id="LnICMcrU3YOlmoYzz83u-11" style="edgeStyle=orthogonalEdgeStyle;rounded=0;orthogonalLoop=1;jettySize=auto;html=1;exitX=1;exitY=0.5;exitDx=0;exitDy=0;entryX=0;entryY=0.5;entryDx=0;entryDy=0;" edge="1" parent="1" source="LnICMcrU3YOlmoYzz83u-6" target="LnICMcrU3YOlmoYzz83u-7">
          <mxGeometry relative="1" as="geometry" />
        </mxCell>
        <mxCell id="LnICMcrU3YOlmoYzz83u-12" value="Confrim" style="edgeLabel;html=1;align=center;verticalAlign=middle;resizable=0;points=[];" vertex="1" connectable="0" parent="LnICMcrU3YOlmoYzz83u-11">
          <mxGeometry x="0.2" y="3" relative="1" as="geometry">
            <mxPoint x="-12" y="1" as="offset" />
          </mxGeometry>
        </mxCell>
        <mxCell id="LnICMcrU3YOlmoYzz83u-6" value="Step 1 - Meet with Employee and Review" style="rounded=1;whiteSpace=wrap;html=1;absoluteArcSize=1;arcSize=14;strokeWidth=2;" vertex="1" parent="1">
          <mxGeometry x="-1530" y="192.5" width="150" height="65" as="geometry" />
        </mxCell>
        <mxCell id="LnICMcrU3YOlmoYzz83u-9" style="edgeStyle=orthogonalEdgeStyle;rounded=0;orthogonalLoop=1;jettySize=auto;html=1;exitX=1;exitY=0.5;exitDx=0;exitDy=0;" edge="1" parent="1" source="LnICMcrU3YOlmoYzz83u-7" target="LnICMcrU3YOlmoYzz83u-8">
          <mxGeometry relative="1" as="geometry" />
        </mxCell>
        <mxCell id="LnICMcrU3YOlmoYzz83u-15" value="Confirm" style="edgeLabel;html=1;align=center;verticalAlign=middle;resizable=0;points=[];" vertex="1" connectable="0" parent="LnICMcrU3YOlmoYzz83u-9">
          <mxGeometry x="0.0667" y="-1" relative="1" as="geometry">
            <mxPoint y="-3" as="offset" />
          </mxGeometry>
        </mxCell>
        <mxCell id="LnICMcrU3YOlmoYzz83u-7" value="Step 2 - Meet with Employee and Review" style="rounded=1;whiteSpace=wrap;html=1;absoluteArcSize=1;arcSize=14;strokeWidth=2;" vertex="1" parent="1">
          <mxGeometry x="-1290" y="192.5" width="150" height="65" as="geometry" />
        </mxCell>
        <mxCell id="LnICMcrU3YOlmoYzz83u-17" value="" style="edgeStyle=orthogonalEdgeStyle;rounded=0;orthogonalLoop=1;jettySize=auto;html=1;" edge="1" parent="1" source="LnICMcrU3YOlmoYzz83u-8" target="LnICMcrU3YOlmoYzz83u-16">
          <mxGeometry relative="1" as="geometry" />
        </mxCell>
        <mxCell id="LnICMcrU3YOlmoYzz83u-8" value="Step 3 - Next Steps" style="rounded=1;whiteSpace=wrap;html=1;absoluteArcSize=1;arcSize=14;strokeWidth=2;" vertex="1" parent="1">
          <mxGeometry x="-1060" y="192" width="150" height="65" as="geometry" />
        </mxCell>
        <mxCell id="LnICMcrU3YOlmoYzz83u-21" value="" style="edgeStyle=orthogonalEdgeStyle;rounded=0;orthogonalLoop=1;jettySize=auto;html=1;entryX=0;entryY=0.5;entryDx=0;entryDy=0;" edge="1" parent="1" source="LnICMcrU3YOlmoYzz83u-16" target="LnICMcrU3YOlmoYzz83u-26">
          <mxGeometry relative="1" as="geometry">
            <mxPoint x="-640" y="140" as="targetPoint" />
          </mxGeometry>
        </mxCell>
        <mxCell id="LnICMcrU3YOlmoYzz83u-28" style="edgeStyle=orthogonalEdgeStyle;rounded=0;orthogonalLoop=1;jettySize=auto;html=1;entryX=0;entryY=0.5;entryDx=0;entryDy=0;" edge="1" parent="1" target="LnICMcrU3YOlmoYzz83u-27">
          <mxGeometry relative="1" as="geometry">
            <mxPoint x="-700" y="225" as="sourcePoint" />
          </mxGeometry>
        </mxCell>
        <mxCell id="LnICMcrU3YOlmoYzz83u-30" style="edgeStyle=orthogonalEdgeStyle;rounded=0;orthogonalLoop=1;jettySize=auto;html=1;entryX=0;entryY=0.5;entryDx=0;entryDy=0;" edge="1" parent="1" source="LnICMcrU3YOlmoYzz83u-16" target="LnICMcrU3YOlmoYzz83u-29">
          <mxGeometry relative="1" as="geometry" />
        </mxCell>
        <mxCell id="LnICMcrU3YOlmoYzz83u-16" value="Uploaded Signed FAN letter" style="whiteSpace=wrap;html=1;rounded=1;absoluteArcSize=1;arcSize=14;strokeWidth=2;" vertex="1" parent="1">
          <mxGeometry x="-820" y="194.5" width="120" height="60" as="geometry" />
        </mxCell>
        <mxCell id="LnICMcrU3YOlmoYzz83u-23" value="End TNC case" style="strokeWidth=2;html=1;shape=mxgraph.flowchart.start_2;whiteSpace=wrap;" vertex="1" parent="1">
          <mxGeometry x="-390" y="189.5" width="60" height="70" as="geometry" />
        </mxCell>
        <mxCell id="LnICMcrU3YOlmoYzz83u-31" style="edgeStyle=orthogonalEdgeStyle;rounded=0;orthogonalLoop=1;jettySize=auto;html=1;exitX=1;exitY=0.5;exitDx=0;exitDy=0;" edge="1" parent="1" source="LnICMcrU3YOlmoYzz83u-26" target="LnICMcrU3YOlmoYzz83u-23">
          <mxGeometry relative="1" as="geometry" />
        </mxCell>
        <mxCell id="LnICMcrU3YOlmoYzz83u-26" value="Close Case" style="rounded=1;whiteSpace=wrap;html=1;absoluteArcSize=1;arcSize=14;strokeWidth=2;" vertex="1" parent="1">
          <mxGeometry x="-610" y="100" width="100" height="50" as="geometry" />
        </mxCell>
        <mxCell id="LnICMcrU3YOlmoYzz83u-27" value="Refer Case" style="rounded=1;whiteSpace=wrap;html=1;absoluteArcSize=1;arcSize=14;strokeWidth=2;" vertex="1" parent="1">
          <mxGeometry x="-610" y="200" width="100" height="50" as="geometry" />
        </mxCell>
        <mxCell id="LnICMcrU3YOlmoYzz83u-34" style="edgeStyle=orthogonalEdgeStyle;rounded=0;orthogonalLoop=1;jettySize=auto;html=1;exitX=1;exitY=0.5;exitDx=0;exitDy=0;" edge="1" parent="1" source="LnICMcrU3YOlmoYzz83u-29">
          <mxGeometry relative="1" as="geometry">
            <mxPoint x="-360" y="260" as="targetPoint" />
          </mxGeometry>
        </mxCell>
        <mxCell id="LnICMcrU3YOlmoYzz83u-29" value="No Action" style="rounded=1;whiteSpace=wrap;html=1;absoluteArcSize=1;arcSize=14;strokeWidth=2;" vertex="1" parent="1">
          <mxGeometry x="-610" y="290" width="100" height="50" as="geometry" />
        </mxCell>
        <mxCell id="LnICMcrU3YOlmoYzz83u-32" style="edgeStyle=orthogonalEdgeStyle;rounded=0;orthogonalLoop=1;jettySize=auto;html=1;exitX=1;exitY=0.5;exitDx=0;exitDy=0;entryX=0;entryY=0.5;entryDx=0;entryDy=0;entryPerimeter=0;" edge="1" parent="1" source="LnICMcrU3YOlmoYzz83u-27" target="LnICMcrU3YOlmoYzz83u-23">
          <mxGeometry relative="1" as="geometry" />
        </mxCell>
      </root>
    </mxGraphModel>
  </diagram>
</mxfile>
